<svg xmlns="http://www.w3.org/2000/svg" width="31.143" height="29.639" viewBox="0 0 31.143 29.639">
    <defs>
        <style>
            .cls-4{fill:#8892a0}.cls-5{fill:#e39854}.cls-6{fill:#fadfb2}
        </style>
    </defs>
    <g id="clerk" transform="translate(.001)">
        <path id="Path_292" fill="#f2c351" d="M22 46.869v-10.04a2.912 2.912 0 0 1 2.475-2.823L30.037 33h4.019l5.562 1.006a2.912 2.912 0 0 1 2.475 2.823v10.04z" transform="translate(-11.452 -17.708)"/>
        <path id="Path_293" fill="#f7d881" d="M26.7 45.124a9.251 9.251 0 0 0 9.47-9.016 8.6 8.6 0 0 0-.476-2.812L34.056 33h-4.019l-5.562 1.006A2.912 2.912 0 0 0 22 36.829v7.1a9.783 9.783 0 0 0 4.7 1.2z" transform="translate(-11.452 -17.708)"/>
        <path id="Path_294" fill="#758190" d="M8.53 37.608H3a.981.981 0 0 1-1-.956v-6.7A.981.981 0 0 1 3 29h13.06a.981.981 0 0 1 1 .956v6.7a.981.981 0 0 1-1 .956h-5.521" transform="translate(-1.499 -15.621)"/>
        <path id="Path_295" d="M14.521 29H3a.981.981 0 0 0-1 .956v6.7a.981.981 0 0 0 1 .956h7.177A12.691 12.691 0 0 0 14.521 29z" class="cls-4" transform="translate(-1.499 -15.621)"/>
        <path id="Path_296" d="M52 40.29v-6.15l2.009.363v5.787z" class="cls-5" transform="translate(-26.383 -18.303)"/>
        <path id="Path_297" d="M38 29v1.435a2.012 2.012 0 0 0 4.019 0V29" class="cls-6" transform="translate(-19.415 -15.621)"/>
        <path id="Path_298" d="M33 12.913v2.869a4.526 4.526 0 0 0 9.042 0v-2.869l-1-1.913-.8.574a4.7 4.7 0 0 1-5.425 0L34 11z" class="cls-6" transform="translate(-16.927 -6.229)"/>
        <path id="Path_299" fill="#976947" d="M32.8 3.492l.87-.623a4.759 4.759 0 0 1 4.63-.478L39.7 3a3.5 3.5 0 0 1 1.575 1.339 3.244 3.244 0 0 1 .215 3.081l-.577 1.28v-.483l-1-1.913-.8.574a4.7 4.7 0 0 1-5.425 0l-.8-.574-1 1.913V8.7l-.862-1.642a2.4 2.4 0 0 1 .1-2.405A2.626 2.626 0 0 1 32.8 3.492z" transform="translate(-15.798 -1.533)"/>
        <path id="Path_300" d="M31.507 16H31a.958.958 0 1 0 0 1.913h.5" class="cls-6" transform="translate(-15.434 -8.838)"/>
        <path id="Path_301" d="M51 16h.5a.958.958 0 1 1 0 1.913H51" class="cls-6" transform="translate(-25.885 -8.838)"/>
        <path id="Path_302" fill="#c16b3f" d="M28 51.3V47h14.065v4.3" transform="translate(-14.439 -25.013)"/>
        <path id="Path_303" d="M2 56h27.125v2.869H2z" class="cls-4" transform="translate(-1.499 -29.709)"/>
        <path id="Path_304" fill="#a8b0bc" d="M2 56h27.125v1.435H2z" transform="translate(-1.499 -29.709)"/>
        <path id="Path_305" fill="#d5cec2" d="M15 46.608V38h2.009v8.608" transform="translate(-7.969 -20.317)"/>
        <path id="Path_306" d="M28 47v4.3h6.265a9.224 9.224 0 0 0 4.109-4.3z" class="cls-5" transform="translate(-14.439 -25.013)"/>
        <path id="Path_307" fill="#e7e4dd" d="M15 43.549a13.537 13.537 0 0 0 2.009-1.57V38H15z" transform="translate(-7.969 -20.317)"/>
        <path id="Path_308" d="M32.142 20.145a3.393 3.393 0 0 0-2.882-3.293l-5.16-.934c0-.027.009-.053.009-.08v-1.125a4.747 4.747 0 0 0 2.513-4.136 1.473 1.473 0 0 0 1.506-1.435 1.457 1.457 0 0 0-1.256-1.411l.286-.632a3.71 3.71 0 0 0-.247-3.518 3.981 3.981 0 0 0-1.8-1.528l-1.4-.608a5.366 5.366 0 0 0-5.14.531l-.792.566a3.131 3.131 0 0 0-1.9 1.35 2.839 2.839 0 0 0-.116 2.865l.513.978a1.457 1.457 0 0 0-1.212 1.406 1.474 1.474 0 0 0 1.506 1.435 4.747 4.747 0 0 0 2.512 4.135v1.125c0 .028.008.053.009.08l-2.018.365v-.924a1.474 1.474 0 0 0-1.507-1.435H2.507A1.474 1.474 0 0 0 1 15.359v6.7a1.474 1.474 0 0 0 1.507 1.435H7.53v3.348H1.5a.49.49 0 0 0-.5.478v2.869a.49.49 0 0 0 .5.478h30.141a.514.514 0 0 0 .356-.14.466.466 0 0 0 .147-.338zM26.617 8.664a.479.479 0 1 1 0 .956zm-10.046.956a.479.479 0 1 1 0-.956zm.089-3.291a1.927 1.927 0 0 1 .079-1.944A2.157 2.157 0 0 1 18.56 3.4a2.381 2.381 0 0 1 1.956 1l.157.225.836-.53-.158-.225a3.342 3.342 0 0 0-1.894-1.3 4.315 4.315 0 0 1 3.835-.25l1.4.608a3 3 0 0 1 1.353 1.15 2.79 2.79 0 0 1 .185 2.647l-.03.075-.64-1.219a.5.5 0 0 0-.334-.252.534.534 0 0 0-.417.083l-.8.574a4.181 4.181 0 0 1-4.822 0l-.8-.574a.527.527 0 0 0-.417-.083.5.5 0 0 0-.334.252l-.681 1.3zm.915 4.247V7.82l.682-1.3.322.231a5.227 5.227 0 0 0 6.028 0l.322-.23.683 1.3v2.757a4.024 4.024 0 0 1-8.038 0zm5.525 4.563v.7a1.509 1.509 0 0 1-3.013 0v-.7a5.259 5.259 0 0 0 3.013 0zm-6.027 2.118l2.253-.408a2.553 2.553 0 0 0 4.534 0l2.254.408v5.277h-9.04zM2.507 22.532a.491.491 0 0 1-.5-.478v-6.695a.491.491 0 0 1 .5-.478h13.06a.491.491 0 0 1 .5.478v7.173h-5.524v-3.825a.49.49 0 0 0-.5-.478H8.032a.49.49 0 0 0-.5.478v3.826H2.507zm11.553.956v3.348h-2.01v-3.347zm-3.014 0v3.348h-.5v-3.347zm-1.507-4.3v7.652h-1v-7.655zm18.585 10.518H2v-1.913h26.12zm0-2.869H15.065v-3.348h13.06zm-1.005-4.3v-5.099l1.005.182v4.913zm2.01 7.173v-11.9a2.419 2.419 0 0 1 2.009 2.339v9.561z" transform="translate(-1.001 -1.024)"/>
    </g>
</svg>
