<svg xmlns="http://www.w3.org/2000/svg" width="48.797" height="48.799" viewBox="0 0 54.797 54.799">
    <defs>
        <style>
            .cls-4{fill:#edf4fc}
        </style>
    </defs>
    <g id="damaged-package" transform="translate(-.009)">
        <circle id="Ellipse_20" cx="10.293" cy="10.293" r="10.293" fill="#f9677f" transform="translate(33.685 .535)"/>
        <path id="Path_261" fill="#bf6132" d="M45.935 45.867a10.295 10.295 0 0 1-9.447-14.382l-31.44 5.393a3.067 3.067 0 0 0-2.333 4.178L8.583 56.8a4.58 4.58 0 0 1 .167 2.647L4.89 75.889a3.129 3.129 0 0 0 3.12 3.12h40.3a3.13 3.13 0 0 0 3.12-3.12V44.274a10.241 10.241 0 0 1-5.495 1.593z" transform="translate(-1.957 -24.745)"/>
        <circle id="Ellipse_21" cx="7.796" cy="7.796" r="7.796" fill="#fc3850" transform="translate(36.182 3.032)"/>
        <path id="Path_262" d="M200.784 32.28A1.284 1.284 0 0 1 199.5 31v-3.216a1.284 1.284 0 1 1 2.569 0V31a1.284 1.284 0 0 1-1.285 1.28z" class="cls-4" transform="translate(-156.788 -20.827)"/>
        <path id="Path_263" d="M200 62.177v.214a1.177 1.177 0 1 0 2.355 0v-.214a1.177 1.177 0 1 0-2.355 0z" class="cls-4" transform="translate(-157.181 -47.942)"/>
        <path id="Path_264" fill="#fcac27" d="M91 37.345l3.19 18.6-9.836 1.685-3.19-18.6z" transform="translate(-63.783 -29.351)"/>
        <path id="Path_265" fill="#facb35" d="M104.571 38.174l4.826-.828 3.19 18.6-4.826.828z" transform="translate(-82.179 -29.352)"/>
        <path id="Path_266" d="M40.294 135.753a.535.535 0 0 1-.377-.915l1.692-1.679a.535.535 0 0 1 .754.76l-1.692 1.681a.534.534 0 0 1-.377.153z" transform="translate(-31.241 -104.533)"/>
        <path id="Path_267" d="M42.481 154.411a.535.535 0 0 1-.01-1.07l2.383-.047h.011a.535.535 0 0 1 .01 1.07l-2.383.047z" transform="translate(-32.959 -120.48)"/>
        <path id="Path_268" d="M43.2 168.765a.534.534 0 0 1-.367-.146l-1.733-1.635a.535.535 0 1 1 .734-.779l1.734 1.636a.535.535 0 0 1-.367.925z" transform="translate(-32.159 -130.513)"/>
        <path id="Path_269" d="M165.657 21.657a10.828 10.828 0 1 1 10.828-10.828 10.84 10.84 0 0 1-10.828 10.828zm0-20.586a9.758 9.758 0 1 0 9.758 9.758 9.769 9.769 0 0 0-9.758-9.759z" transform="translate(-121.679)"/>
        <path id="Path_270" d="M46.356 77.58H6.054A3.659 3.659 0 0 1 2.4 73.925a.534.534 0 0 1 .014-.122l3.86-16.441a4.047 4.047 0 0 0-.148-2.338L.256 39.278a3.7 3.7 0 0 1 .228-3.15A3.587 3.587 0 0 1 3 34.386l31.44-5.393a.535.535 0 0 1 .582.74A9.757 9.757 0 0 0 49.19 41.857a.535.535 0 0 1 .821.452v31.615a3.659 3.659 0 0 1-3.655 3.656zM3.47 73.98a2.588 2.588 0 0 0 2.584 2.53h40.3a2.588 2.588 0 0 0 2.585-2.585V43.233A10.831 10.831 0 0 1 33.7 30.206L3.182 35.441a2.521 2.521 0 0 0-1.769 1.221 2.6 2.6 0 0 0-.154 2.238l5.868 15.75a5.117 5.117 0 0 1 .187 2.957z" transform="translate(0 -22.781)"/>
        <path id="Path_271" d="M174.824 28.327A8.332 8.332 0 1 1 183.156 20a8.341 8.341 0 0 1-8.332 8.327zm0-15.593A7.261 7.261 0 1 0 182.086 20a7.27 7.27 0 0 0-7.262-7.266z" transform="translate(-130.846 -9.167)"/>
        <path id="Path_272" d="M198.82 30.85a1.822 1.822 0 0 1-1.82-1.82v-3.21a1.819 1.819 0 1 1 3.639 0v3.21a1.822 1.822 0 0 1-1.819 1.82zm0-5.78a.75.75 0 0 0-.749.749v3.211a.749.749 0 1 0 1.5 0v-3.21a.75.75 0 0 0-.751-.75z" transform="translate(-154.823 -18.863)"/>
        <path id="Path_273" d="M199.212 62.139a1.714 1.714 0 0 1-1.712-1.712v-.214a1.712 1.712 0 1 1 3.425 0v.214a1.714 1.714 0 0 1-1.713 1.712zm0-2.569a.643.643 0 0 0-.642.642v.214a.642.642 0 1 0 1.284 0v-.214a.643.643 0 0 0-.642-.642z" transform="translate(-155.216 -45.978)"/>
        <path id="Path_274" d="M82.388 56.2a.535.535 0 0 1-.527-.445l-3.19-18.6a.535.535 0 0 1 .437-.618l9.837-1.687a.535.535 0 0 1 .618.437l3.19 18.6a.535.535 0 0 1-.437.618l-9.837 1.687a.528.528 0 0 1-.091.008zm-2.571-18.7l3.009 17.543 8.782-1.506L88.6 36z" transform="translate(-61.818 -27.385)"/>
        <path id="Path_275" d="M105.8 55.34a.535.535 0 0 1-.527-.445l-3.19-18.6a.535.535 0 0 1 .437-.618l4.827-.828a.535.535 0 0 1 .618.437l3.19 18.6a.535.535 0 0 1-.437.618l-4.826.828a.554.554 0 0 1-.091.008zm-2.572-18.7l3.009 17.543L110 53.54 107 36z" transform="translate(-80.214 -27.385)"/>
    </g>
</svg>
