<svg xmlns="http://www.w3.org/2000/svg" width="43.154" height="45.812" viewBox="0 0 63.154 65.812">
    <defs>
        <style>
            .cls-4{fill:#b2b1b4}.cls-5{fill:#f8bc1e}.cls-6{fill:#f9da62}.cls-7{fill:#f5a922}.cls-8{fill:#f79726}
        </style>
    </defs>
    <g id="Flat" transform="translate(-32 -24)">
        <rect id="Rectangle_200" width="38.579" height="53.33" fill="#0093b9" rx="19.29" transform="translate(47.886 28.539)"/>
        <path id="Path_238" fill="#e3e4e2" d="M176 88h29.5v44.253H176z" transform="translate(-123.576 -54.922)"/>
        <path id="Path_239" fill="#57c3c1" d="M239.886 33.078H224v-4.539h4.539L227.4 24h9.078l-1.135 4.539h4.539z" transform="translate(-164.767)"/>
        <g id="Group_64" transform="translate(55.828 36.482)">
            <path id="Path_240" d="M205.673 118.808h-4.539a1.135 1.135 0 0 1-1.134-1.135v-4.539a1.135 1.135 0 0 1 1.135-1.134h4.539a1.135 1.135 0 0 1 1.135 1.135v4.539a1.135 1.135 0 0 1-1.136 1.134zm-3.4-2.269h2.269v-2.269h-2.269z" class="cls-4" transform="translate(-200 -112)"/>
            <path id="Path_241" d="M205.673 190.808h-4.539a1.135 1.135 0 0 1-1.134-1.135v-4.539a1.135 1.135 0 0 1 1.135-1.134h4.539a1.135 1.135 0 0 1 1.135 1.135v4.539a1.135 1.135 0 0 1-1.136 1.134zm-3.4-2.269h2.269v-2.269h-2.269z" class="cls-4" transform="translate(-200 -173.788)"/>
            <path id="Path_242" d="M264 112h2.269v2.269H264z" class="cls-4" transform="translate(-254.922 -112)"/>
            <path id="Path_243" d="M264 144h13.616v2.269H264z" class="cls-4" transform="translate(-254.922 -139.461)"/>
            <path id="Path_244" d="M296 112h9.078v2.269H296z" class="cls-4" transform="translate(-282.384 -112)"/>
            <path id="Path_245" d="M264 184h2.269v2.269H264z" class="cls-4" transform="translate(-254.922 -173.788)"/>
            <path id="Path_246" d="M264 216h13.616v2.269H264z" class="cls-4" transform="translate(-254.922 -201.249)"/>
            <path id="Path_247" d="M296 184h9.078v2.269H296z" class="cls-4" transform="translate(-282.384 -173.788)"/>
        </g>
        <path id="Path_248" d="M72.849 268.31H32V232h20.424v18.155h20.425z" class="cls-5" transform="translate(0 -178.498)"/>
        <path id="Path_249" d="M224 360h6.808v6.808H224z" class="cls-6" transform="translate(-164.767 -288.343)"/>
        <path id="Path_250" d="M203.29 368h-1.7a1.7 1.7 0 0 0-1.7 1.7v2.88a9.035 9.035 0 0 1-9.034 9.034H185.7a1.7 1.7 0 0 0-1.7 1.7v1.7h19.29z" class="cls-7" transform="translate(-130.441 -295.208)"/>
        <path id="Path_251" d="M280 448h2.269v2.269H280z" class="cls-8" transform="translate(-212.825 -363.861)"/>
        <path id="Path_252" d="M80 360h6.808v6.808H80z" class="cls-6" transform="translate(-41.192 -288.343)"/>
        <path id="Path_253" d="M59.29 368h-1.7a1.7 1.7 0 0 0-1.7 1.7v2.88a9.035 9.035 0 0 1-9.034 9.034H41.7a1.7 1.7 0 0 0-1.7 1.7v1.7h19.29z" class="cls-7" transform="translate(-6.865 -295.208)"/>
        <path id="Path_254" d="M136 448h2.269v2.269H136z" class="cls-8" transform="translate(-89.249 -363.861)"/>
        <path id="Path_255" d="M80 232h6.808v6.808H80z" class="cls-6" transform="translate(-41.192 -178.498)"/>
        <path id="Path_256" d="M59.29 240h-1.7a1.7 1.7 0 0 0-1.7 1.7v2.88a9.035 9.035 0 0 1-9.034 9.034H41.7a1.7 1.7 0 0 0-1.7 1.7v1.7h19.29z" class="cls-7" transform="translate(-6.865 -185.363)"/>
        <path id="Path_257" d="M136 320h2.269v2.269H136z" class="cls-8" transform="translate(-89.249 -254.016)"/>
        <path id="Path_258" d="M251.437 235.06L221 244.167l-5-.873 3.7-3.475 30.438-9.107a2.269 2.269 0 1 1 1.3 4.348z" class="cls-5" transform="translate(-157.902 -177.311)"/>
        <path id="Path_259" d="M373.738 249.178l-.65-2.174 7.848-2.348-.374-8.179 2.241-.67.441 9.631a1.135 1.135 0 0 1-.808 1.139z" class="cls-8" transform="translate(-292.709 -181.765)"/>
        <path id="Path_260" d="M0 0h2.269v4.539H0z" class="cls-8" transform="rotate(-16.677 241.26 -198.958)"/>
    </g>
</svg>
