<svg xmlns="http://www.w3.org/2000/svg" width="41.008" height="37.281" viewBox="0 0 41.008 37.281">
    <defs>
        <style>
            .cls-1{fill:#0e9347}.cls-6{fill:#f6b545}.cls-7{fill:#ffcb5b}.cls-8{fill:#ffe27a}.cls-9{fill:#f19920}.cls-10{fill:#e78825}
        </style>
    </defs>
    <g id="money_1_">
        <path id="Path_134" d="M39.144 47.5H1.864A1.87 1.87 0 0 1 0 45.64v-20.5a1.87 1.87 0 0 1 1.864-1.864h37.28a1.87 1.87 0 0 1 1.864 1.864v20.5a1.87 1.87 0 0 1-1.864 1.86z" class="cls-1" transform="translate(0 -23.272)"/>
        <path id="Path_135" fill="#0d8944" d="M260.346 232.727a6.238 6.238 0 0 0-5.219 2.7 6.952 6.952 0 0 0-3.169-.839 6.521 6.521 0 0 0-6.431 5.592h19.479a1.9 1.9 0 0 0 1.864-1.584 6.639 6.639 0 0 0-6.524-5.869z" transform="translate(-225.862 -215.951)"/>
        <path id="Path_136" fill="#3bb54a" d="M56.825 67.05H27a3.739 3.739 0 0 0-3.728-3.728V50.274A3.739 3.739 0 0 0 27 46.546h29.825a3.739 3.739 0 0 0 3.728 3.728v13.048a3.739 3.739 0 0 0-3.728 3.728z" transform="translate(-21.409 -44.682)"/>
        <g id="Group_58" transform="translate(7.456 3.728)">
            <path id="Path_137" d="M266.769 232.727a6.238 6.238 0 0 0-5.219 2.7 6.952 6.952 0 0 0-3.169-.839 6.4 6.4 0 0 0-5.872 3.728H267.7a3.72 3.72 0 0 1 3.635-3.728 6.737 6.737 0 0 0-4.566-1.861z" class="cls-1" transform="translate(-239.741 -219.679)"/>
            <ellipse id="Ellipse_11" cx="7.456" cy="8.388" class="cls-1" rx="7.456" ry="8.388" transform="translate(5.592)"/>
            <circle id="Ellipse_12" cx="1.864" cy="1.864" r="1.864" class="cls-1" transform="translate(0 6.524)"/>
            <circle id="Ellipse_13" cx="1.864" cy="1.864" r="1.864" class="cls-1" transform="translate(22.368 6.524)"/>
        </g>
        <path id="Path_138" fill="#89c763" d="M214.115 109.389h-1.864a.932.932 0 1 1 0-1.864h2.8a.932.932 0 0 0 0-1.864h-.932a.932.932 0 1 0-1.864 0 2.8 2.8 0 0 0 0 5.592h1.864a.932.932 0 0 1 0 1.864h-2.8a.932.932 0 1 0 0 1.864h.932a.932.932 0 1 0 1.864 0 2.8 2.8 0 1 0 0-5.592z" transform="translate(-192.679 -98.205)"/>
        <circle id="Ellipse_14" cx="6.524" cy="6.524" r="6.524" fill="#ffca5d" transform="translate(17.708 18.64)"/>
        <circle id="Ellipse_15" cx="6.524" cy="6.524" r="6.524" class="cls-6" transform="translate(26.096 16.776)"/>
        <path id="Path_139" d="M332.342 232.727a6.524 6.524 0 1 0 6.524 6.524 6.484 6.484 0 0 0-6.524-6.524zm0 11.184a4.66 4.66 0 1 1 4.66-4.66 4.615 4.615 0 0 1-4.66 4.66z" class="cls-7" transform="translate(-299.722 -215.951)"/>
        <path id="Path_140" d="M407.273 320.613a6.406 6.406 0 0 0 6.524-6.431h-.097a.991.991 0 0 0-.932.839 5.635 5.635 0 0 1-1.768 3.355 5.281 5.281 0 0 1-2.889 1.4.835.835 0 0 0-.838.837z" class="cls-6" transform="translate(-374.653 -290.882)"/>
        <path id="Path_141" d="M332.342 233.867a6.406 6.406 0 0 0-6.524 6.431h.093a.991.991 0 0 0 .932-.839 5.635 5.635 0 0 1 1.771-3.355 5.281 5.281 0 0 1 2.889-1.4.835.835 0 0 0 .839-.837z" class="cls-8" transform="translate(-299.722 -216.997)"/>
        <path id="Path_142" d="M349.743 261.312a4.615 4.615 0 0 1 4.66-4.66 4.4 4.4 0 0 1 2.982 1.118 4.646 4.646 0 0 0-8.295 2.889 4.468 4.468 0 0 0 1.678 3.542 4.371 4.371 0 0 1-1.025-2.889z" class="cls-9" transform="translate(-321.131 -237.36)"/>
        <path id="Path_143" d="M437.365 311.719a.342.342 0 0 1-.28-.093.45.45 0 0 1 0-.652 3.111 3.111 0 0 0 .839-2.144.466.466 0 1 1 .932 0 4.3 4.3 0 0 1-1.025 2.8 1.013 1.013 0 0 1-.466.089z" class="cls-7" transform="translate(-401.949 -285.53)"/>
        <g id="Group_59" transform="translate(26.189 18.64)">
            <path id="Path_144" d="M396.569 284.866a.881.881 0 0 1-.932-.932v-3.728a.932.932 0 1 1 1.864 0v3.728a.881.881 0 0 1-.932.932z" class="cls-9" transform="translate(-390.138 -277.41)"/>
            <path id="Path_145" d="M336.86 266.159a7.573 7.573 0 0 0-4.474-5.033 7.792 7.792 0 0 0-3.541-5.126 6.737 6.737 0 0 0-1.864 4.567 6.484 6.484 0 0 0 6.524 6.524 5.4 5.4 0 0 0 3.355-.932z" class="cls-9" transform="translate(-326.981 -256)"/>
        </g>
        <g id="Group_60" transform="translate(27.96 19.852)">
            <path id="Path_146" d="M350.768 278.118a4.9 4.9 0 0 1-1.118-2.982 4.512 4.512 0 0 1 1.491-3.355 4.055 4.055 0 0 0-.559-.652 4.566 4.566 0 0 0-1.491 3.448 4.469 4.469 0 0 0 1.677 3.541z" class="cls-10" transform="translate(-349.09 -271.128)"/>
            <path id="Path_147" d="M395.636 321.164v1.3a.932.932 0 0 0 1.864 0v-.186a7.615 7.615 0 0 0-1.864-1.114z" class="cls-10" transform="translate(-391.908 -317.156)"/>
        </g>
        <path id="Path_148" d="M335.79 267.228a5.957 5.957 0 0 0-.746-1.771 4.51 4.51 0 0 1-2.7.932 4.615 4.615 0 0 1-4.66-4.66 4.566 4.566 0 0 1 1.491-3.448 5.685 5.685 0 0 0-1.491-1.118 6.737 6.737 0 0 0-1.864 4.567 6.484 6.484 0 0 0 6.524 6.524 6.249 6.249 0 0 0 3.446-1.026z" class="cls-6" transform="translate(-299.722 -238.429)"/>
        <path id="Path_149" d="M410.441 372.364a6.442 6.442 0 0 1-2.33.932.991.991 0 0 0-.839.932 6.25 6.25 0 0 0 3.448-1.025z" class="cls-9" transform="translate(-374.652 -344.404)"/>
        <path id="Path_150" d="M327.682 257.164a6.737 6.737 0 0 0-1.864 4.567h.093a.991.991 0 0 0 .932-.839 5.8 5.8 0 0 1 1.678-3.262 3.78 3.78 0 0 1-.839-.466z" class="cls-7" transform="translate(-299.722 -238.43)"/>
        <circle id="Ellipse_16" cx="6.524" cy="6.524" r="6.524" class="cls-6" transform="translate(17.708 18.64)"/>
        <path id="Path_151" d="M290.909 320.705a6.459 6.459 0 0 0 .28 1.864h.652a6.5 6.5 0 0 0 6.244-8.388h-.652a6.484 6.484 0 0 0-6.524 6.524z" class="cls-9" transform="translate(-267.609 -290.881)"/>
        <path id="Path_152" d="M227.614 256a6.524 6.524 0 1 0 6.524 6.524 6.484 6.484 0 0 0-6.524-6.524zm0 11.184a4.66 4.66 0 1 1 4.66-4.66 4.615 4.615 0 0 1-4.66 4.66z" class="cls-7" transform="translate(-203.382 -237.36)"/>
        <path id="Path_153" d="M302.545 343.886a6.406 6.406 0 0 0 6.524-6.431h-.093a.991.991 0 0 0-.932.839 5.635 5.635 0 0 1-1.771 3.355 5.281 5.281 0 0 1-2.889 1.4.835.835 0 0 0-.839.837z" class="cls-6" transform="translate(-278.313 -312.291)"/>
        <path id="Path_154" d="M227.614 257.14a6.406 6.406 0 0 0-6.524 6.431h.093a.991.991 0 0 0 .932-.839 5.635 5.635 0 0 1 1.771-3.355 5.281 5.281 0 0 1 2.889-1.4.835.835 0 0 0 .839-.837z" class="cls-8" transform="translate(-203.382 -238.406)"/>
        <path id="Path_155" d="M245.015 284.585a4.615 4.615 0 0 1 4.66-4.66 4.4 4.4 0 0 1 2.982 1.118 4.646 4.646 0 0 0-8.295 2.889 4.468 4.468 0 0 0 1.678 3.542 4.371 4.371 0 0 1-1.025-2.889z" class="cls-9" transform="translate(-224.791 -258.769)"/>
        <path id="Path_156" d="M332.638 334.991a.342.342 0 0 1-.28-.093.451.451 0 0 1 0-.652 3.11 3.11 0 0 0 .839-2.144.466.466 0 0 1 .932 0 4.3 4.3 0 0 1-1.025 2.8 1.013 1.013 0 0 1-.466.089z" class="cls-7" transform="translate(-305.61 -306.938)"/>
        <path id="Path_157" d="M291.841 308.139a.881.881 0 0 1-.932-.932v-3.728a.932.932 0 1 1 1.864 0v3.728a.88.88 0 0 1-.932.932z" class="cls-9" transform="translate(-267.609 -280.179)"/>
        <g id="Group_61" transform="translate(22.368 23.3)">
            <path id="Path_158" d="M296.129 314.274a5.449 5.449 0 0 1 .373 1.771 4.615 4.615 0 0 1-4.66 4.66 3.171 3.171 0 0 1-.932-.093v.093a6.459 6.459 0 0 0 .28 1.864h.652a6.5 6.5 0 0 0 6.244-8.388h-.652a6.164 6.164 0 0 0-1.305.093z" class="cls-6" transform="translate(-289.978 -314.181)"/>
            <circle id="Ellipse_17" cx="6.524" cy="6.524" r="6.524" class="cls-6" transform="translate(0 .932)"/>
        </g>
        <path id="Path_159" d="M285.8 325.818a6.524 6.524 0 1 0 6.524 6.524 6.484 6.484 0 0 0-6.524-6.524zm0 11.184a4.66 4.66 0 1 1 4.66-4.66A4.615 4.615 0 0 1 285.8 337z" class="cls-7" transform="translate(-256.904 -301.586)"/>
        <path id="Path_160" d="M360.727 413.7a6.406 6.406 0 0 0 6.524-6.431h-.093a.991.991 0 0 0-.932.839 5.634 5.634 0 0 1-1.771 3.355 5.281 5.281 0 0 1-2.889 1.4.835.835 0 0 0-.839.837z" class="cls-6" transform="translate(-331.835 -376.517)"/>
        <path id="Path_161" d="M285.8 326.958a6.406 6.406 0 0 0-6.524 6.431h.093a.991.991 0 0 0 .932-.839 5.635 5.635 0 0 1 1.771-3.355 5.281 5.281 0 0 1 2.889-1.4.835.835 0 0 0 .839-.837z" class="cls-8" transform="translate(-256.904 -302.632)"/>
        <path id="Path_162" d="M303.2 354.4a4.615 4.615 0 0 1 4.66-4.66 4.4 4.4 0 0 1 2.982 1.118 4.646 4.646 0 0 0-8.295 2.889 4.468 4.468 0 0 0 1.678 3.542 4.371 4.371 0 0 1-1.025-2.889z" class="cls-9" transform="translate(-278.313 -322.995)"/>
        <path id="Path_163" d="M390.819 404.809a.342.342 0 0 1-.28-.093.45.45 0 0 1 0-.652 3.111 3.111 0 0 0 .839-2.144.466.466 0 1 1 .932 0 4.3 4.3 0 0 1-1.025 2.8 1.013 1.013 0 0 1-.466.089z" class="cls-7" transform="translate(-359.131 -371.164)"/>
        <path id="Path_164" d="M350.023 377.956a.881.881 0 0 1-.932-.932V373.3a.932.932 0 1 1 1.864 0v3.728a.881.881 0 0 1-.932.928z" class="cls-9" transform="translate(-321.131 -344.404)"/>
    </g>
</svg>
