<svg xmlns="http://www.w3.org/2000/svg" width="35.627" height="33.918" viewBox="0 0 35.627 33.918">
    <defs>
        <style>
            .cls-1{fill:#4abbef}.cls-2{fill:#009be5}.cls-7{fill:#224370}.cls-8{fill:#39689e}
        </style>
    </defs>
    <g id="order_1_" transform="translate(.001)">
        <path id="Path_331" d="M115.178 68.36l-2.036 19.382H90.73L88.694 68.36z" class="cls-1" transform="translate(-82.523 -63.831)"/>
        <path id="Path_332" d="M287.46 68.36l-2.036 19.382H273.86V68.36z" class="cls-2" transform="translate(-254.805 -63.831)"/>
        <path id="Path_333" fill="#83e470" d="M307.839 7.269a7.644 7.644 0 0 1-15.269 0 7.644 7.644 0 0 1 15.269 0z" transform="translate(-272.213)"/>
        <path id="Path_334" fill="#01b763" d="M409.924 7.269a7.458 7.458 0 0 1-7.634 7.268V0a7.458 7.458 0 0 1 7.634 7.269z" transform="translate(-374.298)"/>
        <path id="Path_335" fill="#f3fdff" d="M352.86 72.145l-3.995 3.8-.692.659-3.3-3.145 1.477-1.405 1.827 1.739.692-.659 2.518-2.4z" transform="translate(-320.874 -66.054)"/>
        <path id="Path_336" fill="#d7f3f7" d="M406.285 72.145l-3.995 3.8v-2.808l2.518-2.4z" transform="translate(-374.298 -66.054)"/>
        <path id="Path_337" d="M327.923 275.429h2.088v1.987h-2.088z" class="cls-7" transform="translate(-305.106 -257.183)"/>
        <path id="Path_338" d="M258.86 275.43h2.088v1.987h-2.088z" class="cls-8" transform="translate(-240.849 -257.184)"/>
        <path id="Path_339" d="M273.86 275.43h1.04v1.987h-1.04z" class="cls-7" transform="translate(-254.805 -257.184)"/>
        <path id="Path_340" d="M189.8 275.429h2.087v1.987H189.8z" class="cls-8" transform="translate(-176.592 -257.183)"/>
        <path id="Path_341" d="M6.88 26.035a1.319 1.319 0 0 0 1.351 1.334h22.5v1.982H8.291a3.4 3.4 0 0 1-3.5-3.257 3.294 3.294 0 0 1 2.3-3.107l-2.206-21H0V0h6.777l2.4 22.8h21.556v1.982H8.266a1.349 1.349 0 0 0-1.386 1.253z" class="cls-8" transform="translate(-.001)"/>
        <path id="Path_342" d="M285.54 344.293v1.982h-11.68v-1.985h11.677s.003.001.003.003z" class="cls-7" transform="translate(-254.805 -321.482)"/>
        <path id="Path_343" d="M285.537 413.14v1.982H273.86v-1.982z" class="cls-7" transform="translate(-254.805 -385.771)"/>
        <ellipse id="Ellipse_27" cx="2.545" cy="2.423" class="cls-1" rx="2.545" ry="2.423" transform="translate(10.088 29.073)"/>
        <ellipse id="Ellipse_28" cx="2.545" cy="2.423" class="cls-2" rx="2.545" ry="2.423" transform="translate(22.842 29.073)"/>
    </g>
</svg>
