<svg xmlns="http://www.w3.org/2000/svg" id="Page-1" width="40" height="36.965" viewBox="0 0 60 51.965">
    <defs>
        <style>
            .cls-3{fill:#ffdc00}.cls-7{fill:#f5f5f5}
        </style>
    </defs>
    <g id="_042---Match-Expiry-">
        <path id="Shape" fill="#ef314c" d="M59 16.73A18.18 18.18 0 0 1 57 25a17 17 0 0 0-13-8.85 16.73 16.73 0 0 0-4 0 17 17 0 0 0-5.79 32l-2.93 2.43a2 2 0 0 1-2.56 0C12 36.61 1 28.1 1 16.73 1 8.2 6.9 1 15.49 1A18.1 18.1 0 0 1 30 8.5 18.1 18.1 0 0 1 44.51 1C53.1 1 59 8.2 59 16.73z"/>
        <path id="Shape-2" fill="#bb193b" d="M44.51 1a10.131 10.131 0 0 0-1.57.08C50.75 1.83 56 8.68 56 16.73a17.47 17.47 0 0 1-.89 5.48A17.32 17.32 0 0 1 57 25a18.18 18.18 0 0 0 2-8.24C59 8.2 53.1 1 44.51 1z"/>
        <path id="Shape-3" d="M59 33a17 17 0 1 1-19-16.88 16.73 16.73 0 0 1 4 0A17 17 0 0 1 59 33z" class="cls-3"/>
        <path id="Shape-4" fill="#fec108" d="M57 25a17 17 0 0 0-13-8.85 16.4 16.4 0 0 0-2-.15 10.691 10.691 0 0 0-1.5.07l.5.05a17 17 0 0 1-.52 33.81c.5 0 1 .07 1.52.07a17 17 0 0 0 15-25z"/>
        <circle id="Oval" cx="12" cy="12" r="12" fill="#02a9f4" transform="translate(30 21)"/>
        <path id="Shape-5" fill="#ff9801" d="M44 12v4.12a16.73 16.73 0 0 0-4 0V12z"/>
        <rect id="Rectangle-path" width="12" height="4" class="cls-3" rx="2" transform="translate(36 8)"/>
        <path id="Shape-6" d="M13.73 6.16a1 1 0 0 1-.19-2 10.17 10.17 0 0 1 2-.18 1 1 0 1 1 0 2 8.65 8.65 0 0 0-1.57.14z" class="cls-7"/>
        <path id="Shape-7" d="M5 17.73a1 1 0 0 1-1-1A13 13 0 0 1 9.16 6a1 1 0 1 1 1.14 1.64A11 11 0 0 0 6 16.73a1 1 0 0 1-1 1z" class="cls-7"/>
        <g id="Group_65">
            <path id="Shape-8" d="M44.51 0A18.93 18.93 0 0 0 30 6.85 18.93 18.93 0 0 0 15.49 0C6.65 0 0 7.19 0 16.73 0 28 10.18 36.46 25.63 49.27l2.45 2a3 3 0 0 0 3.84 0l2.45-2A18 18 0 0 0 58.09 25 19 19 0 0 0 60 16.73C60 7.19 53.35 0 44.51 0zM30.64 49.77a1 1 0 0 1-1.28 0l-2.46-2C11.9 35.29 2 27.06 2 16.73 2 8.33 7.79 2 15.49 2a17.24 17.24 0 0 1 13.67 7.05 1 1 0 0 0 1.68-.01A17.15 17.15 0 0 1 44.51 2C52.21 2 58 8.33 58 16.73a16.53 16.53 0 0 1-1.18 6.1 17.89 17.89 0 0 0-3.5-3.83l1.53-2.51a1 1 0 0 0-1.7-1l-1.46 2.38a17.7 17.7 0 0 0-6.69-2.6V13h1a3 3 0 0 0 0-6h-8a3 3 0 1 0 0 6h1v2.27a17.7 17.7 0 0 0-6.69 2.59l-1.46-2.38a1 1 0 0 0-1.7 1L30.68 19a18 18 0 0 0 1.8 29.22zM44 11h-6a1 1 0 0 1 0-2h8a1 1 0 0 1 0 2zm-1 2v2.05c-.33 0-.66-.05-1-.05a6.635 6.635 0 0 0-1 .05V13zm-1 36a16 16 0 1 1 11.314-4.686A16 16 0 0 1 42 49z"/>
            <path id="Shape-9" d="M42 20a13 13 0 1 0 9.192 3.808A13 13 0 0 0 42 20zm0 24a11 11 0 1 1 7.778-3.222A11 11 0 0 1 42 44z"/>
            <path id="Shape-10" d="M48 32h-5v-6a1 1 0 0 0-2 0v7a1 1 0 0 0 1 1h6a1 1 0 0 0 0-2z"/>
        </g>
    </g>
</svg>
