<svg xmlns="http://www.w3.org/2000/svg" xmlns:xlink="http://www.w3.org/1999/xlink" width="36.817" height="31.451" viewBox="0 0 36.817 31.451">
    <defs>
        <linearGradient id="linear-gradient" x1=".548" x2=".715" y1=".267" y2="-.283" gradientUnits="objectBoundingBox">
            <stop offset="0" stop-color="#62e1fb"/>
            <stop offset="1" stop-color="#00a2f3"/>
        </linearGradient>
        <linearGradient id="linear-gradient-2" x1=".625" x2=".5" y1=".15" y2=".54" gradientUnits="objectBoundingBox">
            <stop offset="0" stop-color="#00a2f3" stop-opacity="0"/>
            <stop offset="1" stop-color="#0075cd"/>
        </linearGradient>
        <linearGradient id="linear-gradient-3" x1=".426" x2=".925" y1="1.25" y2=".422" gradientUnits="objectBoundingBox">
            <stop offset="0" stop-color="#ff4c54"/>
            <stop offset="1" stop-color="#be3f45"/>
        </linearGradient>
        <linearGradient id="linear-gradient-4" x1=".532" x2="-.006" y1=".542" y2="1.234" gradientUnits="objectBoundingBox">
            <stop offset="0" stop-color="#be3f45" stop-opacity="0"/>
            <stop offset="1" stop-color="#be3f45"/>
        </linearGradient>
        <linearGradient id="linear-gradient-5" x1=".522" x2="-.061" y1=".567" y2="1.255" xlink:href="#linear-gradient-4"/>
        <linearGradient id="linear-gradient-6" x1=".633" x2="-.072" y1=".572" y2="1.145" xlink:href="#linear-gradient-4"/>
        <linearGradient id="linear-gradient-7" x1="1.083" x2=".016" y1=".796" y2="1.316" xlink:href="#linear-gradient-4"/>
        <linearGradient id="linear-gradient-8" x1=".58" x2=".339" y1="2.529" y2="2.289" gradientUnits="objectBoundingBox">
            <stop offset="0" stop-color="#fff465"/>
            <stop offset="1" stop-color="#ffe600"/>
        </linearGradient>
        <style>
            .cls-8{fill:#fff}
        </style>
    </defs>
    <g id="sale" transform="translate(.001)">
        <path id="Path_280" fill="url(#linear-gradient)" d="M39.409 92.892l5.5-9.973.836-1.514a3.846 3.846 0 0 0 .229-.5 3.622 3.622 0 0 0 .055-2.394 3.852 3.852 0 0 0-1.967-2.26L24.758 66.6a3.644 3.644 0 0 0-3.438.1l-7.336 4.251a3.428 3.428 0 0 0-1.006.882 3.207 3.207 0 0 0-.668 1.873v.1c0 .061 0 .122.006.184l.008.122.4 6.278.107 1.7a3.319 3.319 0 0 0 1.861 2.744L34 94.5a4.108 4.108 0 0 0 5.409-1.608zm-20.99-17.54l-.069-.069c-.054-.056-.1-.114-.149-.172a2.134 2.134 0 0 1 .218-2.891 2.408 2.408 0 0 1 3.289 0 2.134 2.134 0 0 1 .42 2.585.684.684 0 0 1-.043.073c-.013.024-.028.047-.045.072a2.263 2.263 0 0 1-.151.207c-.016.02-.035.042-.053.061-.041.045-.083.089-.128.133a2.41 2.41 0 0 1-3.289.001z" transform="translate(-11.424 -63.483)"/>
        <path id="Path_281" fill="url(#linear-gradient-2)" d="M39.413 92.893l5.5-9.973.836-1.514a3.844 3.844 0 0 0 .229-.5 3.622 3.622 0 0 0 .055-2.394 3.852 3.852 0 0 0-1.967-2.26L24.763 66.6a3.644 3.644 0 0 0-3.438.1l-7.336 4.251a3.427 3.427 0 0 0-1 .881l-.174.277a3.2 3.2 0 0 0-.5 1.709v.179l.006.085a3.209 3.209 0 0 0 .491 1.455l3.488 5.487.928 1.462a3.377 3.377 0 0 0 .746.828l7 6.667L34 94.5a4.108 4.108 0 0 0 5.413-1.607zM22.132 74.807a.685.685 0 0 1-.043.073c-.013.024-.028.047-.045.072a2.274 2.274 0 0 1-.151.207c-.016.02-.035.042-.053.061-.041.045-.083.089-.128.133a2.41 2.41 0 0 1-3.289 0l-.069-.069c-.054-.056-.1-.114-.149-.172a2.134 2.134 0 0 1 .218-2.891 2.408 2.408 0 0 1 3.289 0 2.135 2.135 0 0 1 .42 2.586z" transform="translate(-11.429 -63.483)"/>
        <path id="Path_282" fill="url(#linear-gradient-3)" d="M20.209 46.9h24.026a3.914 3.914 0 0 0 4.006-3.814V30.113a3.914 3.914 0 0 0-4.006-3.813H20.217a3.529 3.529 0 0 0-2.993 1.614l-4.418 7.012a3.188 3.188 0 0 0 .006 3.427l3.482 5.487.928 1.462a3.531 3.531 0 0 0 2.987 1.598zm1.92-9.283a.794.794 0 0 1-.042.073q-.021.036-.045.072a2.207 2.207 0 0 1-.152.207c-.016.021-.034.041-.053.061-.04.046-.084.089-.128.133a2.409 2.409 0 0 1-3.289 0l-.069-.069a2.1 2.1 0 0 1-.15-.172 2.135 2.135 0 0 1 .219-2.891 2.409 2.409 0 0 1 3.289 0 2.135 2.135 0 0 1 .42 2.591z" transform="translate(-11.425 -26.298)"/>
        <path id="Path_283" fill="url(#linear-gradient-4)" d="M181.85 131.638h-11.844l-7.161-6.818a.9.9 0 0 1-.442-.679.685.685 0 0 1 .162-.419.466.466 0 0 1 .371-.21.544.544 0 0 1 .307.141c.12.094.238.2.353.305a1.673 1.673 0 0 0 .527.306 2.118 2.118 0 0 0 .794.141 1.728 1.728 0 0 0 1.06-.3.948.948 0 0 0 .3-.369l-.037-.038-2.856-2.719a2.559 2.559 0 0 1-.385-.389 1.9 1.9 0 0 1-.388-1.221 2.058 2.058 0 0 1 .238-1.012 1.67 1.67 0 0 1 .643-.66 3.151 3.151 0 0 1 .852-.336 4.127 4.127 0 0 1 .945-.1 5.763 5.763 0 0 1 .654.038 4.737 4.737 0 0 1 .678.125 1.586 1.586 0 0 1 .556.251l2.513 2.4 11.947 11.4a1.091 1.091 0 0 1 .106.07.751.751 0 0 1 .107.093z" transform="translate(-150.726 -111.032)"/>
        <path id="Path_284" fill="url(#linear-gradient-5)" d="M260.4 130.359a4.119 4.119 0 0 1-2.489.825h-8.381l-6.75-6.426a.405.405 0 0 1-.242-.342.3.3 0 0 1 .011-.1l1.513-4.7.788-2.449q.147-.4.824-.4t.832.362l3.142 2.991z" transform="translate(-225.098 -110.578)"/>
        <path id="Path_285" fill="url(#linear-gradient-6)" d="M353.67 128.557a3.72 3.72 0 0 1-1.076 2.324 3.805 3.805 0 0 1-.431.378 4.118 4.118 0 0 1-2.489.825h-1.388l-6.709-6.388a.321.321 0 0 1-.162-.281v-7.3a.3.3 0 0 1 .18-.281 1.049 1.049 0 0 1 .869 0l4.478 4.286z" transform="translate(-316.864 -111.478)"/>
        <path id="Path_286" fill="url(#linear-gradient-7)" d="M425.015 119.608v8.662q0 .145-.011.287a3.72 3.72 0 0 1-1.076 2.324l-5.49-5.184a.321.321 0 0 1-.162-.281v-7.291a.321.321 0 0 1 .162-.281.69.69 0 0 1 .382-.105h4.125a.341.341 0 0 1 .3.154z" transform="translate(-388.198 -111.478)"/>
        <g id="Group_70" transform="translate(11.677 6.194)">
            <path id="Path_287" d="M162.4 124.14a.683.683 0 0 1 .162-.419.466.466 0 0 1 .371-.21.538.538 0 0 1 .307.141q.18.141.353.305a1.683 1.683 0 0 0 .527.305 2.119 2.119 0 0 0 .794.141 1.726 1.726 0 0 0 1.06-.3 1.027 1.027 0 0 0 .4-.876 1.153 1.153 0 0 0-.388-.887 2.928 2.928 0 0 0-.939-.566q-.55-.211-1.106-.455a2.449 2.449 0 0 1-.944-.732 1.9 1.9 0 0 1-.388-1.22 2.058 2.058 0 0 1 .238-1.012 1.674 1.674 0 0 1 .643-.66 3.172 3.172 0 0 1 .852-.336 4.13 4.13 0 0 1 .944-.1 5.9 5.9 0 0 1 .655.038 4.81 4.81 0 0 1 .678.125 1.6 1.6 0 0 1 .556.251.463.463 0 0 1 .22.371.755.755 0 0 1-.139.418.425.425 0 0 1-.371.211.724.724 0 0 1-.313-.105 3.232 3.232 0 0 0-.527-.211 2.5 2.5 0 0 0-.759-.105 1.952 1.952 0 0 0-1.054.25.912.912 0 0 0-.185 1.331 1.616 1.616 0 0 0 .539.394q.33.155.736.305a8.006 8.006 0 0 1 .805.349 4.217 4.217 0 0 1 .73.46 1.9 1.9 0 0 1 .539.715 2.5 2.5 0 0 1 .209 1.054 2.123 2.123 0 0 1-.724 1.737 2.918 2.918 0 0 1-1.918.6 3.616 3.616 0 0 1-1.813-.425q-.75-.429-.75-.882z" class="cls-8" transform="translate(-162.403 -117.224)"/>
            <path id="Path_288" d="M242.533 124.419a.315.315 0 0 1 .012-.1l2.3-7.149q.147-.4.824-.4t.836.37l2.294 7.148a.371.371 0 0 1 .023.1q0 .208-.27.358a1.161 1.161 0 0 1-.573.15q-.366 0-.454-.24l-.48-1.58H244.2l-.474 1.576q-.081.244-.428.244a1.007 1.007 0 0 1-.52-.143.407.407 0 0 1-.245-.334zm1.944-2.262h2.3l-1.162-3.786z" class="cls-8" transform="translate(-236.771 -116.774)"/>
            <path id="Path_289" d="M341.415 125.419v-7.3a.3.3 0 0 1 .18-.281 1.054 1.054 0 0 1 .869 0 .3.3 0 0 1 .18.281v6.652h3.013a.307.307 0 0 1 .272.154.722.722 0 0 1 0 .728.307.307 0 0 1-.272.154h-3.7a.688.688 0 0 1-.382-.1.32.32 0 0 1-.16-.288z" class="cls-8" transform="translate(-328.542 -117.676)"/>
            <path id="Path_290" d="M418.271 125.419v-7.291a.32.32 0 0 1 .162-.281.689.689 0 0 1 .382-.1h4.125a.341.341 0 0 1 .3.154.616.616 0 0 1 .1.353.63.63 0 0 1-.11.375.345.345 0 0 1-.3.154h-3.43v2.517h1.784a.359.359 0 0 1 .3.138.523.523 0 0 1 .11.336.507.507 0 0 1-.1.314.355.355 0 0 1-.3.138H419.5v2.537h3.441a.345.345 0 0 1 .3.154.63.63 0 0 1 .11.375.616.616 0 0 1-.1.353.341.341 0 0 1-.3.154h-4.125a.688.688 0 0 1-.382-.1.32.32 0 0 1-.173-.28z" class="cls-8" transform="translate(-399.872 -117.676)"/>
        </g>
        <path id="Path_291" fill="url(#linear-gradient-8)" d="M9.194 64.737a2.278 2.278 0 0 1-3.109 0l-5.441-5.18a2.023 2.023 0 0 1 0-2.96 2.277 2.277 0 0 1 3.109 0l5.441 5.18a2.023 2.023 0 0 1 0 2.96z" transform="translate(-.001 -53.952)"/>
    </g>
</svg>
