<svg xmlns="http://www.w3.org/2000/svg" width="50.442" height="51.36" viewBox="0 0 50.442 51.36">
    <defs>
        <style>
            .cls-1{fill:#3f6d8e}.cls-2{fill:#365e7d}.cls-10{fill:#ffaa5b}.cls-11{fill:#ff9838}
        </style>
    </defs>
    <g id="timer">
        <path id="Path_118" d="M113.641 76a.735.735 0 0 0-1-.269l-1.894 1.094a.735.735 0 0 0-.269 1l1.8 3.111.3.039 2.845-1.646v-.259z" class="cls-1" transform="translate(-97.656 -69.133)"/>
        <path id="Path_119" d="M112.124 81.476a.922.922 0 0 1-.07-.771l-1.31.756a.735.735 0 0 0-.269 1l1.8 3.111.3.039 1.456-.842z" class="cls-2" transform="translate(-97.657 -73.773)"/>
        <path id="Path_120" d="M238.166 40.636h-3.285l-.173.167v4.738l.151.194h3.23l.277-.194V40.8z" class="cls-2" transform="translate(-211.31 -37.146)"/>
        <path id="Path_121" fill="#294b64" d="M236.537 40.8l.173-.167h-1.829l-.173.167v4.738l.151.194h1.829l-.151-.194z" transform="translate(-211.31 -37.146)"/>
        <circle id="Ellipse_8" cx="17.837" cy="17.837" r="17.837" fill="#90d8f9" transform="rotate(-45 31.553 13.07)"/>
        <path id="Path_122" fill="#75cef9" d="M51.293 114.5A17.838 17.838 0 0 1 67.65 96.73c-.488-.04-.981-.061-1.479-.061a17.837 17.837 0 0 0 0 35.673c.5 0 .991-.021 1.479-.062a17.838 17.838 0 0 1-16.357-17.78z" transform="translate(-40.944 -88.365)"/>
        <circle id="Ellipse_9" cx="14.297" cy="14.297" r="14.297" fill="#f4fbff" transform="rotate(-45 34.055 7.028)"/>
        <path id="Path_123" fill="#e4f6ff" d="M93.568 152.173a14.319 14.319 0 0 1 12.284-14.155 14.3 14.3 0 1 0 0 28.31 14.319 14.319 0 0 1-12.284-14.155z" transform="translate(-78.613 -126.034)"/>
        <path id="Path_124" d="M211.407 0h-7.495a.8.8 0 0 0-.795.795v2.068a.8.8 0 0 0 .795.795h7.495a.8.8 0 0 0 .795-.795V.795a.8.8 0 0 0-.795-.795z" class="cls-1" transform="translate(-182.433)"/>
        <path id="Path_125" d="M206.51 2.863V.795A.8.8 0 0 1 207.3 0h-3.392a.8.8 0 0 0-.795.795v2.068a.8.8 0 0 0 .795.795h3.392a.8.8 0 0 1-.79-.795z" class="cls-2" transform="translate(-182.434)"/>
        <path id="Path_126" fill="#dd636e" d="M256 137.876v11.339l.2.273 2.1 1.637h7.632l1.172.73.273.318h2.923a14.313 14.313 0 0 0-14.3-14.297z" transform="translate(-230.773 -126.034)"/>
        <path id="Path_127" fill="#da4a54" d="M258.852 138.162a14.309 14.309 0 0 0-2.852-.286v11.339l.2.273 2.1 1.637h.548z" transform="translate(-230.773 -126.034)"/>
        <path id="Path_128" d="M185.674 288.881h-2.389a1.327 1.327 0 1 0 0 2.655h2.389l.132-.281v-2.138z" class="cls-10" transform="translate(-163.09 -264.069)"/>
        <path id="Path_129" d="M291.754 288.881h-7.411l-.228.176v2.05l.228.429h7.411a1.327 1.327 0 1 0 0-2.654z" class="cls-10" transform="translate(-256.474 -264.069)"/>
        <path id="Path_130" d="M183.285 297.272a1.326 1.326 0 0 1-1.148-.664 1.326 1.326 0 0 0 1.148 1.991h2.389l.132-.281v-1.328l-.132.281z" class="cls-11" transform="translate(-163.091 -271.132)"/>
        <path id="Path_131" d="M291.754 297.272h-7.411l-.228-.429v1.327l.228.429h7.411a1.326 1.326 0 0 0 1.148-1.991 1.326 1.326 0 0 1-1.148.664z" class="cls-11" transform="translate(-256.474 -271.132)"/>
        <path id="Path_132" d="M96.777 130.15a14.961 14.961 0 1 0 14.961 14.961 14.978 14.978 0 0 0-14.961-14.961zm7.381 26.418l-.3-.525a.664.664 0 0 0-1.149.664l.3.527a13.538 13.538 0 0 1-5.569 1.494v-.61a.664.664 0 1 0-1.327 0v.61a13.538 13.538 0 0 1-5.569-1.494l.3-.527a.664.664 0 1 0-1.149-.664l-.3.525a13.743 13.743 0 0 1-4.076-4.076l.525-.3a.664.664 0 0 0-.664-1.149l-.527.3a13.538 13.538 0 0 1-1.494-5.569h.61a.664.664 0 1 0 0-1.327h-.61a13.538 13.538 0 0 1 1.494-5.569l.527.3a.664.664 0 0 0 .664-1.149l-.525-.3a13.743 13.743 0 0 1 4.076-4.076l.3.525a.664.664 0 1 0 1.149-.664l-.3-.527a13.538 13.538 0 0 1 5.569-1.494v.61a.664.664 0 0 0 1.327 0v-.61a13.538 13.538 0 0 1 5.569 1.494l-.3.527a.664.664 0 1 0 1.149.664l.3-.525a13.745 13.745 0 0 1 4.076 4.076l-.525.3a.664.664 0 0 0 .664 1.149l.527-.3a13.536 13.536 0 0 1 1.494 5.569h-.61a.664.664 0 1 0 0 1.327h.61a13.538 13.538 0 0 1-1.494 5.569l-.527-.3a.664.664 0 0 0-.664 1.149l.525.3a13.744 13.744 0 0 1-4.076 4.076z" class="cls-2" transform="translate(-71.55 -118.971)"/>
        <circle id="Ellipse_10" cx="2.959" cy="2.959" r="2.959" fill="#ffba7e" transform="rotate(-67.486 31.453 -2.122)"/>
        <path id="Path_133" d="M223.633 272.847a2.963 2.963 0 0 1 1.919-2.77 2.959 2.959 0 1 0 0 5.539 2.963 2.963 0 0 1-1.919-2.77z" class="cls-10" transform="translate(-199.286 -246.707)"/>
    </g>
</svg>
