<svg xmlns="http://www.w3.org/2000/svg" width="31.261" height="29.762" viewBox="0 0 31.261 29.762">
    <defs>
        <style>
            .cls-1{fill:#ffc178}.cls-3{fill:#0d8ebc}.cls-4{fill:#0a617d}.cls-6{fill:#ff3838}
        </style>
    </defs>
    <g id="trolley" transform="translate(.001)">
        <path id="Path_309" d="M197.569 0h-5.19l-2.137.988L188.106 0h-5.19a.9.9 0 0 0-.916.872v10.463a.9.9 0 0 0 .916.872h14.653a.9.9 0 0 0 .916-.872V.872a.9.9 0 0 0-.916-.872z" class="cls-1" transform="translate(-170.889)"/>
        <path id="Path_310" fill="#ff9d21" d="M324.327 12.207a.9.9 0 0 0 .916-.872V.872a.9.9 0 0 0-.916-.872h-5.19L317 .988v11.219z" transform="translate(-297.646)"/>
        <path id="Path_311" d="M282 0v5.925a.737.737 0 0 0 1.21.53l.927-.757.927.757a.737.737 0 0 0 1.21-.53V0z" class="cls-3" transform="translate(-264.783)"/>
        <path id="Path_312" d="M317 5.7l.927.757a.737.737 0 0 0 1.21-.53V0H317z" class="cls-4" transform="translate(-297.646)"/>
        <path id="Path_313" d="M312.074 180h-2.29l-1.832.988-1.831-.988h-3.205a.9.9 0 0 0-.916.872v9.3a.9.9 0 0 0 .916.872h9.158a.9.9 0 0 0 .916-.872v-9.3a.9.9 0 0 0-.916-.872z" class="cls-1" transform="translate(-283.562 -169.537)"/>
        <path id="Path_314" fill="#ffe278" d="M144.785 180l-1.832 1.511-1.832-1.511H137v11.044h10.99V180z" transform="translate(-128.636 -169.537)"/>
        <path id="Path_315" d="M122.916 82.729a.9.9 0 0 1-.916-.872V65.872a.917.917 0 0 1 1.832 0v15.985a.9.9 0 0 1-.916.872z" class="cls-6" transform="translate(-114.552 -61.222)"/>
        <path id="Path_316" fill="#ff7d47" d="M122 355v5.929a.9.9 0 0 0 .916.872H144.9a.9.9 0 0 0 .916-.872V355z" transform="translate(-114.552 -334.364)"/>
        <path id="Path_317" d="M317 361.8h10.99a.9.9 0 0 0 .916-.872V355H317z" class="cls-6" transform="translate(-297.646 -334.364)"/>
        <ellipse id="Ellipse_22" cx="3.45" cy="3.284" class="cls-4" rx="3.45" ry="3.284" transform="translate(22.23 23.193)"/>
        <ellipse id="Ellipse_23" cx="1.533" cy="1.46" fill="#e2dff4" rx="1.533" ry="1.46" transform="translate(23.764 25.383)"/>
        <ellipse id="Ellipse_24" cx="3.45" cy="3.284" class="cls-3" rx="3.45" ry="3.284" transform="translate(9.965 23.193)"/>
        <ellipse id="Ellipse_25" cx="1.533" cy="1.46" fill="#f6f9f9" rx="1.533" ry="1.46" transform="translate(11.498 25.383)"/>
        <path id="Path_318" d="M6.533 20h-4.7a1.746 1.746 0 1 0 0 3.488h7.448v-.872A2.684 2.684 0 0 0 6.533 20z" class="cls-3" transform="translate(-.001 -18.837)"/>
        <path id="Path_319" d="M373.163 180H369.5v3.564a.612.612 0 0 0 .949.484l.882-.56.883.56a.612.612 0 0 0 .949-.484z" class="cls-4" transform="translate(-346.941 -169.537)"/>
        <path id="Path_320" d="M208.163 180H204.5v3.564a.612.612 0 0 0 .949.484l.882-.56.882.56a.612.612 0 0 0 .949-.484z" class="cls-3" transform="translate(-192.015 -169.537)"/>
    </g>
</svg>
